<?xml version="1.0" encoding="UTF-8"?>
<svg width="870px" height="501px" viewBox="0 0 870 501" version="1.1" xmlns="http://www.w3.org/2000/svg" xmlns:xlink="http://www.w3.org/1999/xlink">
    <defs></defs>
    <g id="Layout" stroke="none" stroke-width="1" fill="none" fill-rule="evenodd">
        <g id="Group" transform="translate(2.000000, 3.000000)" fill-rule="nonzero" stroke="#ABAAAA">
            <g id="Candidate" transform="translate(433.000000, 248.500000) scale(-1, 1) translate(-433.000000, -248.500000) ">
                <polygon id="Path" fill="#D1D1D1" points="177.9375 224.113281 192.361328 224.113281 266.275391 395.867188 147.148438 476.380859 113.734375 434.933594 185.992188 291.804688"></polygon>
                <polygon id="Path-2" fill="#DEDBDB" points="191.527344 224.929688 230.605469 224.929688 306.527344 294.894531 265.908203 397.138672"></polygon>
                <path d="" id="Path-3" fill="#F1F1F1"></path>
                <polygon id="Path-4" fill="#F9F9F9" points="85.3710938 437.167969 114.234375 434.285156 147.669922 477.101562"></polygon>
                <polygon id="Path-5" fill="#D8D8D8" points="59.5273438 469.302734 84.34375 437.607422 147.261719 476.861328"></polygon>
                <polygon id="Path-6" fill="#C1C1C1" points="229.71875 224.960938 268.302734 201.673828 262.5625 254.507812"></polygon>
                <polygon id="Path-7" fill="#CCCCCC" points="27.0253906 222.416016 277.205078 147.941406 268.271484 202.46875 229.4375 225.177734"></polygon>
                <polygon id="Path-8" fill="#F7F7F7" points="262.5625 255.154297 292.166016 32.2460938 328.941406 18.1679688 459.330078 331.773438 463.644531 430.539062"></polygon>
                <polygon id="Path-9" fill="#F1F1F1" points="322.640625 309.853516 394.265625 494.814453 444.119141 494.814453 463.632812 466.945312 463.632812 430.855469"></polygon>
                <polygon id="Path-10" fill="#CCCCCC" points="393.636719 494.873047 364.482422 494.873047 387.472656 478.183594"></polygon>
                <polygon id="Path-11" fill="#F7F7F7" points="0.001953125 181.664062 26.3945312 222.648438 276.652344 148.111328 291.472656 32.3378906 65.4902344 120.78125 59.5195312 140.90625"></polygon>
                <polygon id="Path-12" fill="#ABAAAA" points="13.1679688 201.863281 23.7089844 181.164062 1.29101562 181.164062"></polygon>
                <polygon id="Path-13" fill="#ABAAAA" points="73.2773438 141.933594 86.8964844 130.798828 98.8652344 141.933594"></polygon>
                <polygon id="Path-14" fill="#D8D8D8" points="163.716797 104.880859 181.914062 123.066406 209.013672 92.8125"></polygon>
                <polygon id="Path-15" fill="#ABAAAA" points="182.386719 123.033203 195.648438 136.123047 208.853516 93.4707031"></polygon>
                <polygon id="Path-16" fill="#EAE8E8" points="329.171875 19.0097656 464.003906 61.8027344 446.269531 302.083984"></polygon>
                <polygon id="Path-17" fill="#F1F1F1" points="449.523438 261.458984 463.71875 62.3632812 398.132812 41.0957031 632.039062 0.357421875 538.701172 242.179688"></polygon>
                <polygon id="Path-18" fill="#D8D7D7" points="449.976562 261.380859 445.65625 299.748047 449.976562 308.605469 621.095703 308.605469 539.230469 242.283203"></polygon>
                <polygon id="Path-19" fill="#ABAAAA" points="554.265625 309.326172 649.234375 434.349609 675.640625 352.998047 622.539062 309.326172"></polygon>
                <polygon id="Path-20" fill="#CCCCCC" points="564.626953 323.722656 571.890625 481.166016 554.546875 494.115234 630.050781 494.115234 649.519531 434.242188"></polygon>
                <path d="" id="Path-21" fill="#D8D8D8"></path>
                <polygon id="Path-22" fill="#F9F9F9" points="538.740234 242.183594 794.541016 448.410156 865.095703 416.267578 632.320312 0.79296875"></polygon>
                <polygon id="Path-23" fill="#F4F3F3" points="632.181641 1.65429688 713.621094 66.8964844 827.707031 349.582031"></polygon>
                <polygon id="Path-24" fill="#EEEBEB" points="713.490234 66.8417969 789.939453 125.828125 802.089844 284.673828"></polygon>
                <polygon id="Path-25" fill="#F1F1F1" points="794.054688 448.726562 804.816406 485.900391 799.435547 492.210938 817.730469 496.021484 864.664062 416.716797"></polygon>
            </g>
            <g id="Bear" transform="translate(433.000000, 248.500000) scale(-1, 1) translate(-433.000000, -248.500000) " stroke-width="2">
                <polygon id="Path" points="177.9375 224.113281 192.361328 224.113281 266.275391 395.867188 147.148438 476.380859 113.734375 434.933594 185.992188 291.804688"></polygon>
                <polygon id="Path-2" points="191.527344 224.929688 230.605469 224.929688 306.527344 294.894531 265.908203 397.138672"></polygon>
                <path d="" id="Path-3"></path>
                <polygon id="Path-4" points="85.3710938 437.167969 114.234375 434.285156 147.669922 477.101562"></polygon>
                <polygon id="Path-5" points="59.5273438 469.302734 84.34375 437.607422 147.261719 476.861328"></polygon>
                <polygon id="Path-6" points="229.71875 224.960938 268.302734 201.673828 262.5625 254.507812"></polygon>
                <polygon id="Path-7" points="27.0253906 222.416016 277.205078 147.941406 268.271484 202.46875 229.4375 225.177734"></polygon>
                <polygon id="Path-8" points="262.5625 255.154297 292.166016 32.2460938 328.941406 18.1679688 459.330078 331.773438 463.644531 430.539062"></polygon>
                <polygon id="Path-9" points="323.640625 309.853516 395.265625 494.814453 445.119141 494.814453 464.632812 466.945312 464.632812 430.855469"></polygon>
                <polygon id="Path-10" points="395.636719 494.873047 366.482422 494.873047 389.472656 478.183594"></polygon>
                <polygon id="Path-11" points="0.001953125 181.664062 26.3945312 222.648438 276.652344 148.111328 291.472656 32.3378906 65.4902344 120.78125 59.5195312 140.90625"></polygon>
                <polygon id="Path-12" points="13.1679688 201.863281 23.7089844 181.164062 1.29101562 181.164062"></polygon>
                <polygon id="Path-13" points="73.2773438 141.933594 86.8964844 130.798828 98.8652344 141.933594"></polygon>
                <polygon id="Path-14" points="163.716797 104.880859 181.914062 123.066406 209.013672 92.8125"></polygon>
                <polygon id="Path-15" points="182.386719 123.033203 195.648438 136.123047 208.853516 93.4707031"></polygon>
                <polygon id="Path-16" points="329.171875 19.0097656 464.003906 61.8027344 446.269531 302.083984"></polygon>
                <polygon id="Path-17" points="449.523438 261.458984 463.71875 62.3632812 398.132812 41.0957031 632.039062 0.357421875 538.701172 242.179688"></polygon>
                <polygon id="Path-18" points="449.976562 261.380859 445.65625 299.748047 449.976562 308.605469 621.095703 308.605469 539.230469 242.283203"></polygon>
                <polygon id="Path-19" points="554.265625 309.326172 649.234375 434.349609 675.640625 352.998047 622.539062 309.326172"></polygon>
                <polygon id="Path-20" points="564.626953 323.722656 571.890625 481.166016 554.546875 494.115234 630.050781 494.115234 649.519531 434.242188"></polygon>
                <path d="" id="Path-21"></path>
                <polygon id="Path-22" points="538.740234 242.183594 794.541016 448.410156 865.095703 416.267578 632.320312 0.79296875"></polygon>
                <polygon id="Path-23" points="632.181641 1.65429688 713.621094 66.8964844 827.707031 349.582031"></polygon>
                <polygon id="Path-24" points="713.490234 66.8417969 789.939453 125.828125 802.089844 284.673828"></polygon>
                <polygon id="Path-25" points="794.054688 448.726562 804.816406 485.900391 799.435547 492.210938 817.730469 496.021484 864.664062 416.716797"></polygon>
            </g>
        </g>
    </g>
</svg>